<?xml version="1.0" encoding="UTF-8"?>
<svg xmlns="http://www.w3.org/2000/svg" xmlns:xlink="http://www.w3.org/1999/xlink" viewBox="0 0 226.08 151.35">
  <defs>
    <style>
      .cls-1, .cls-2, .cls-3, .cls-4, .cls-5, .cls-6, .cls-7 {
        fill-rule: evenodd;
      }

      .cls-1, .cls-2, .cls-3, .cls-4, .cls-8, .cls-9, .cls-6, .cls-7, .cls-10, .cls-11 {
        mix-blend-mode: multiply;
      }

      .cls-1, .cls-3 {
        opacity: .2;
      }

      .cls-1, .cls-6, .cls-11 {
        fill: #f4bbc0;
      }

      .cls-2 {
        fill: url(#_Áåçûìÿííûé_ãðàäèåíò_409);
      }

      .cls-2, .cls-6, .cls-7, .cls-11 {
        opacity: .6;
      }

      .cls-12 {
        fill: #fff;
      }

      .cls-13 {
        fill: url(#_Áåçûìÿííûé_ãðàäèåíò_152-3);
      }

      .cls-14 {
        fill: url(#_Áåçûìÿííûé_ãðàäèåíò_152);
      }

      .cls-15 {
        isolation: isolate;
      }

      .cls-3, .cls-4, .cls-8, .cls-9 {
        fill: #d77290;
      }

      .cls-16 {
        fill: #f6fbfc;
      }

      .cls-16, .cls-17 {
        mix-blend-mode: soft-light;
        opacity: .97;
      }

      .cls-18 {
        fill: url(#_Áåçûìÿííûé_ãðàäèåíò_152-2);
      }

      .cls-4 {
        opacity: .3;
      }

      .cls-5 {
        fill: #b34d62;
      }

      .cls-19 {
        fill: url(#_Áåçûìÿííûé_ãðàäèåíò_59-2);
      }

      .cls-19, .cls-20 {
        mix-blend-mode: screen;
      }

      .cls-8 {
        opacity: .31;
      }

      .cls-9 {
        opacity: .5;
      }

      .cls-20 {
        fill: url(#_Áåçûìÿííûé_ãðàäèåíò_59);
      }

      .cls-7 {
        fill: url(#_Áåçûìÿííûé_ãðàäèåíò_55);
      }

      .cls-10 {
        fill: url(#radial-gradient);
        opacity: .8;
      }

      .cls-17 {
        fill: #f5ee90;
      }

      .cls-21 {
        fill: url(#_Áåçûìÿííûé_ãðàäèåíò_152-4);
      }

      .cls-22 {
        fill: url(#_Áåçûìÿííûé_ãðàäèåíò_151);
      }
    </style>
    <radialGradient id="radial-gradient" cx="-3638.15" cy="538.51" fx="-3638.15" fy="538.51" r="579.1" gradientTransform="translate(3616.56 1101.25) rotate(21.26)" gradientUnits="userSpaceOnUse">
      <stop offset="0" stop-color="#e7e5f0"/>
      <stop offset=".17" stop-color="#e2dfec"/>
      <stop offset=".37" stop-color="#d6d0e1"/>
      <stop offset=".59" stop-color="#c3b7cf"/>
      <stop offset=".82" stop-color="#a895b7"/>
      <stop offset="1" stop-color="#8f76a1"/>
    </radialGradient>
    <linearGradient id="_Áåçûìÿííûé_ãðàäèåíò_151" data-name="Áåçûìÿííûé ãðàäèåíò 151" x1="2940.16" y1="-6558.67" x2="2940.16" y2="-6877.31" gradientTransform="translate(5127.61 5487.23) rotate(-66.32)" gradientUnits="userSpaceOnUse">
      <stop offset=".02" stop-color="#f8b682"/>
      <stop offset="1" stop-color="#f08578"/>
    </linearGradient>
    <linearGradient id="_Áåçûìÿííûé_ãðàäèåíò_152" data-name="Áåçûìÿííûé ãðàäèåíò 152" x1="2949.28" y1="-6729.58" x2="2996.73" y2="-6777.03" gradientTransform="translate(5127.61 5487.23) rotate(-66.32)" gradientUnits="userSpaceOnUse">
      <stop offset="0" stop-color="#f08578"/>
      <stop offset=".98" stop-color="#f8b682"/>
    </linearGradient>
    <linearGradient id="_Áåçûìÿííûé_ãðàäèåíò_152-2" data-name="Áåçûìÿííûé ãðàäèåíò 152" x1="2891.82" y1="-6771.48" x2="2891.82" y2="-6838.29" xlink:href="#_Áåçûìÿííûé_ãðàäèåíò_152"/>
    <linearGradient id="_Áåçûìÿííûé_ãðàäèåíò_152-3" data-name="Áåçûìÿííûé ãðàäèåíò 152" x1="2923.6" y1="-6781.36" x2="2923.6" y2="-6879.23" xlink:href="#_Áåçûìÿííûé_ãðàäèåíò_152"/>
    <linearGradient id="_Áåçûìÿííûé_ãðàäèåíò_152-4" data-name="Áåçûìÿííûé ãðàäèåíò 152" x1="2952.62" y1="-6778.75" x2="2952.62" y2="-6863.48" xlink:href="#_Áåçûìÿííûé_ãðàäèåíò_152"/>
    <linearGradient id="_Áåçûìÿííûé_ãðàäèåíò_55" data-name="Áåçûìÿííûé ãðàäèåíò 55" x1="2961.4" y1="-6830.64" x2="2961.4" y2="-6831.67" gradientTransform="translate(5127.61 5487.23) rotate(-66.32)" gradientUnits="userSpaceOnUse">
      <stop offset="0" stop-color="#8667aa"/>
      <stop offset="1" stop-color="#fde9dc"/>
    </linearGradient>
    <linearGradient id="_Áåçûìÿííûé_ãðàäèåíò_409" data-name="Áåçûìÿííûé ãðàäèåíò 409" x1="-2929.46" y1="-6843.85" x2="-2929.46" y2="-6844.64" gradientTransform="translate(5117.56 5509.24) rotate(113.68) scale(1 -1)" gradientUnits="userSpaceOnUse">
      <stop offset="0" stop-color="#fde9dc"/>
      <stop offset=".99" stop-color="#8667aa"/>
    </linearGradient>
    <linearGradient id="_Áåçûìÿííûé_ãðàäèåíò_59" data-name="Áåçûìÿííûé ãðàäèåíò 59" x1="-1613.55" y1="-1592.24" x2="-1562.28" y2="-1592.24" gradientTransform="translate(2312.51 -528.7) rotate(-60.85)" gradientUnits="userSpaceOnUse">
      <stop offset="0" stop-color="#010101"/>
      <stop offset=".03" stop-color="#070301"/>
      <stop offset=".39" stop-color="#661f07"/>
      <stop offset=".68" stop-color="#ac340c"/>
      <stop offset=".89" stop-color="#d7410e"/>
      <stop offset="1" stop-color="#e84610"/>
    </linearGradient>
    <linearGradient id="_Áåçûìÿííûé_ãðàäèåíò_59-2" data-name="Áåçûìÿííûé ãðàäèåíò 59" x1="1647.71" y1="16928.08" x2="1695.59" y2="16928.08" gradientTransform="translate(7947.07 2559.91) rotate(119.15) scale(1 .48)" xlink:href="#_Áåçûìÿííûé_ãðàäèåíò_59"/>
  </defs>
  <g class="cls-15">
    <g id="Calque_2" data-name="Calque 2">
      <g id="Calque_1-2" data-name="Calque 1">
        <g>
          <path class="cls-10" d="M13.45,27.06c10.85,2.49,26.64,11.94,43.65,17.24h.02c23.92,7.44,46.46,14.93,46.46,14.93l1.19-2.71-.14-.06-.11,.18-25.06-11.3-5.84-2.63s-.55-.1-1.49-.25c.01-.02,.04-.05,.06-.08-5.39,.78-39.15-9.81-41.26-19.01-1.76-7.72,3.65-12.92,5.49-12.12,5.22,1.24,15.81,4.89,28.22,9.43l.97,.37c16.07,5.85,34.99,13.21,49.32,18.83h.02c5.55,2.21,10.43,4.12,14.16,5.61h0s0,0,0,0l7.85,3.13s0,0,0,0h0s2.13-7.46,2.13-7.46l-7.79-5.45s-15.02-.35-17.72-1.91c-2.73-1.55-13.47-14.02-12.29-21.14C102.5,5.52,106.97-.34,108.59,.02c.92,.2,6.66,5.48,13.52,12.1v.03c5.45,5.21,11.24,10.4,14.96,12.3,.25,.13,.52,.26,.8,.39,.06,.03,.12,.06,.18,.09,.23,.11,.46,.22,.71,.33,.07,.03,.14,.06,.2,.09,.26,.12,.53,.24,.8,.37,.05,.02,.09,.04,.14,.06,6.13,2.75,16.03,6.68,24.45,10.94,.02,0,.04,.02,.06,.03,.39,.2,.77,.39,1.15,.59,.04,.02,.07,.04,.11,.06,.39,.2,.77,.4,1.14,.6,0,0,.01,0,.02,0,2.37,1.27,4.56,2.56,6.45,3.85,0,0,.01,0,.02,.01,0,0,0,0,0,0,1.66,1.13,3.09,2.27,4.19,3.39,.12,.12,.23,.24,.35,.38,0,0,.02,.01,.02,.02,.11,.13,.22,.27,.33,.41,.11,.14,.21,.29,.32,.44,0,0,0,0,0,.02,.11,.15,.21,.32,.31,.49,.11,.16,.2,.34,.3,.51,.39,.7,.73,1.48,1.04,2.32,.08,.21,.16,.42,.23,.64,.14,.4,.27,.82,.39,1.25,.43,1.51,.77,3.16,1.04,4.89,0,.03,.01,.06,.02,.09,.06,.38,.11,.76,.16,1.15,0,0,0,.01,0,.01,0,0,0,0,0,0,.14,1.05,.25,2.13,.34,3.21,0,.04,0,.08,.01,.12,0,.01,0,.02,0,.04,.07,.88,.13,1.77,.18,2.65,0,.01,0,.02,0,.03,0,.03,0,.05,0,.08,.02,.36,.04,.71,.05,1.07,0,.08,0,.16,.01,.24,0,.1,0,.2,0,.29,.01,.29,.02,.57,.03,.86,0,.06,0,.12,0,.18,0,.23,.01,.45,.02,.68,0,.23,0,.45,0,.67,0,.21,0,.42,.01,.63,0,.27,0,.54,0,.81,0,.1,0,.2,0,.3,0,.68,0,1.34-.01,2,0,.03,0,.06,0,.09,0,.1,0,.19,0,.29,0,.21,0,.41-.01,.61,0,.08,0,.17,0,.25,0,.13,0,.25,0,.37,0,.13,0,.26-.01,.39,0,.14,0,.28-.01,.42,0,.07,0,.14,0,.21,0,.02,0,.03,0,.05,0,.3-.02,.59-.03,.87,0,.2-.01,.4-.02,.59-.01,.2-.02,.4-.03,.59,0,.05,0,.11,0,.16,0,.09,0,.17-.01,.26,0,.07,0,.13,0,.2,0,.07,0,.14-.01,.21-.01,.3-.03,.6-.04,.88-.07,1.26-.15,2.37-.22,3.29,0,.1-.01,.2-.02,.29,0,0,0,.02,0,.03-.08,1.02-.15,1.77-.19,2.19,0,.03,0,.07,0,.09-.02,.19-.03,.29-.03,.29,.33,.21,.67,.4,1,.6,.24,.14,.48,.29,.72,.42,.34,.19,.69,.36,1.03,.54,.18,.09,.35,.19,.53,.27,.43,.21,.86,.4,1.29,.6,.11,.05,.23,.11,.34,.16,.55,.24,1.11,.47,1.67,.69,.15,.06,.32,.13,.49,.19,.14,.06,.29,.11,.45,.16,.17,.06,.34,.12,.52,.18,.1,.04,.21,.07,.31,.11,.12,.04,.24,.08,.37,.12,.04,.01,.09,.03,.14,.04,.18,.06,.38,.12,.57,.18,.37,.11,.75,.23,1.15,.34,.32,.09,.64,.18,.98,.28,.18,.05,.36,.1,.54,.15,.11,.03,.22,.06,.33,.09,.24,.06,.49,.13,.74,.19,.03,0,.06,.02,.09,.02,.32,.08,.66,.17,.99,.25,.82,.2,1.66,.41,2.54,.61,.32,.07,.64,.15,.97,.22,.2,.05,.41,.1,.62,.14,.22,.05,13.32,3.21,25.69,6.19v40.37c-22.11-6.16-61.18-16.36-61.18-16.36l-19.28,10.84c-7.35-.16-23.72-5.77-36.74-10.7-.36-.13-.68-.27-1-.38-9.75-3.69-17.38-6.92-17.38-6.92l-28.11-11.01s-7.19,.3-13.45-2.24c-6.26-2.52-14.65-6.3-16.11-7.57-5.77-3.94-2.2-17.4,2.47-15.52,3.44,1.34,8.21,3.2,13.45,5.26l.02-.02c2.79,1.09,5.72,2.24,8.66,3.39,.75,.29,1.49,.58,2.24,.88h.02c13.72,5.38,26.99,10.59,26.99,10.59l3-6.49-.13-.06-.17-.07-.08,.19-36.96-16.38-1.32-.58c-4.46-.44-8.83-1.51-12.91-2.92,.42,.09,.86,.17,1.3,.23-.35-.11-.7-.23-1.05-.35t-.04-.02c-2.92-1.02-5.72-2.22-8.29-3.43h-.02s-.09-.05-.13-.07c-.07-.03-.14-.07-.21-.11-.03-.02-.07-.04-.1-.06-9.61-4.65-15.26-9.29-15.26-9.29-3.81-2.79-1.32-9.1,.51-10.98-.02-.02-.05-.04-.07-.06,0,0,.03,.01,.09,.04,.05-.05,.11-.11,.16-.15-2.67-1.47-5.76-2.06-7.48-6.69-.03-.04-.05-.06-.05-.06-.1-.24-.17-.49-.23-.76-.18-.59-.34-1.22-.48-1.93-1.4-7.1,3.02-11.46,6.7-10.7Z"/>
          <g>
            <path class="cls-12" d="M.33,48.4c.14,.74,.32,1.44,.52,2.11,.1,.42,.22,.82,.38,1.2l.07,.11c1.4,3.64,3.56,5.44,5.57,6.6-.79,1.88-1.27,4.09-1.1,6.19,.22,2.57,1.36,4.7,3.3,6.16,.73,.59,6.37,5.03,15.58,9.5,.12,.07,.24,.13,.37,.19,.08,.04,.16,.08,.24,.11,2.2,1.04,4.29,1.93,6.3,2.7-2.2-.2-4.86,.82-6.74,4.33-2.5,4.68-3.02,13.55,2.52,17.47,3.13,2.44,16.51,7.84,16.65,7.9,5.6,2.27,11.76,2.48,13.92,2.47l26.96,10.56c.64,.27,8.01,3.37,17.18,6.84l.11,.04c.11,.04,.23,.09,.35,.13,.18,.07,.36,.14,.56,.21,18.48,6.99,31.02,10.6,37.29,10.74l1.82-.45,17.71-9.96c8.06,2.11,49.02,12.83,66.21,17.79v-7.38c-20.05-5.71-63.73-17.1-65.8-17.64l-2.63,.34-18.06,10.16c-5.74-.47-17.73-4.07-34.04-10.24l-.06-.02c-.13-.05-.25-.1-.38-.14-.2-.08-.39-.15-.59-.22-9.39-3.56-16.85-6.71-16.92-6.74l-.09-.04-27.65-10.83-1.44-.24c-.06,0-6.41,.22-11.75-1.95-7.06-2.84-13.79-6.03-14.89-6.87l.04,.03-.33-.25c-.84-.57-1.35-1.98-1.39-3.77-.04-2.23,.67-4.16,1.23-4.99l2.25,.88c2.95,1.15,6.49,2.53,10.28,4.02h.04s10.72,4.19,10.72,4.19c13.5,5.29,26.55,10.41,26.55,10.41l4.52-1.81,2.95-6.39-1.79-4.73-.28-.12-.27,.1-37.47-16.61-1.09-.29c-3.43-.34-7.03-1.11-10.71-2.3l.04-.18-.13-.04c-.19-.06-.38-.13-.57-.19h-.01c-.19-.1-.39-.16-.59-.21-2.38-.84-4.84-1.87-7.52-3.13l-.14-.06h0s0,0,0,0c0,0,0,0,0,0h-.02c-.1-.07-.2-.12-.3-.16-8.9-4.31-14.24-8.63-14.29-8.68l-.15-.12c-.15-.11-.44-.32-.5-1.09-.14-1.63,.87-3.79,1.45-4.38v-.08s-.31-5.15-.31-5.15l-.09-.07,.03,.02-.2,.24-.08-.71c-.58-.32-1.15-.59-1.69-.85-1.98-.94-3.18-1.51-4.05-3.86l-.09-.16h0s-.02-.05-.04-.13l-.08-.32c-.15-.48-.27-.99-.38-1.54-.71-3.61,.7-5.33,1.15-5.78,.48-.47,.96-.64,1.23-.59,5.01,1.16,11.31,3.99,18.59,7.26,7.26,3.26,15.49,6.95,24.01,9.61l.04,.02c23.23,7.22,45.41,14.59,45.63,14.66l4.37-1.94,1.17-2.67-1.79-4.66-.14-.06-.29,.09-30.21-13.62-.83-.26s-.57-.1-1.55-.26l-.2,1.26-.8-1.35c-1.58,.16-10.05-1.63-19.89-5.53-12.47-4.95-16.39-9-16.73-10.45-.9-3.95,.84-6.65,1.79-7.51,4.62,1.18,13.58,4.2,26.66,8.98l.99,.38c15.57,5.67,34.05,12.85,48.41,18.48h.04c2.33,.94,4.55,1.81,6.61,2.62,2.75,1.08,5.22,2.06,7.32,2.89h.01s7.72,3.07,7.72,3.07l1.19-2.99,3.53,.68,2.1-7.34-1.38-3.88-7.66-5.36-1.95-.64c-6.32-.15-14.12-.76-15.77-1.43-.76-.51-3.63-3.32-6.4-7.4-3.28-4.83-4.18-8.19-3.92-9.71,.65-3.89,2.39-7.07,3.61-8.68,1.57,1.33,4.72,4.16,10.88,10.11l.04,.06c7.37,7.05,12.16,10.97,15.54,12.7,.29,.15,.58,.28,.87,.43l.19,.09c.23,.11,.47,.22,.73,.34l.21,.1c.26,.12,.53,.24,.81,.37l.13,.06c1.93,.87,4.23,1.85,6.67,2.89,5.47,2.33,11.66,4.98,17.25,7.81l.04,.02c.38,.19,.75,.38,1.11,.57l.13,.07c.34,.18,.7,.37,1.06,.56,2.37,1.27,4.39,2.47,6.03,3.59l.05,.03c1.49,1.02,2.7,1.99,3.56,2.87,.03,.03,.08,.08,.13,.14h.01s.06,.09,.06,.09c.07,.08,.13,.16,.19,.24,.06,.09,.13,.18,.19,.27l.03,.02,.04,.07c.05,.07,.1,.15,.14,.22l.07,.12c.05,.08,.1,.17,.15,.26l.03,.05c.28,.51,.55,1.11,.8,1.79,.07,.18,.12,.34,.18,.5l.02,.06c.12,.35,.23,.7,.32,1.04,.37,1.29,.68,2.76,.93,4.39l.02,.11c.04,.28,.08,.58,.13,.89v.11s.01,0,.01,0v.06s0,0,0,0c.12,.92,.23,1.9,.32,3l.02,.18c.06,.78,.12,1.62,.17,2.47h0s0,.1,0,.1c.02,.34,.03,.68,.05,1.02l.02,.51c0,.27,.02,.54,.03,.81v.17c.01,.23,.02,.47,.02,.7,0,.09,0,.22,0,.35v.39c0,.16,0,.33,.01,.49v.02c0,.25,0,.5,0,.75v.24c0,.66,0,1.3-.01,1.92l-.02,1.18c0,.12,0,.25,0,.38l-.03,1.03c0,.28-.02,.56-.03,.84l-.02,.56c0,.19-.02,.38-.03,.57l-.08,1.67c-.06,1.03-.13,2.1-.21,3.14l-.02,.28c-.08,1-.14,1.72-.18,2.11l-.03,.28,1.61,3.43c.3,.19,.6,.37,.91,.55l.34,.2c.22,.13,.43,.26,.65,.38,.37,.2,.74,.4,1.12,.59l.18,.09c.13,.07,.26,.14,.4,.2,.46,.22,.92,.43,1.39,.64l.09,.04c.09,.04,.18,.08,.27,.12,.57,.25,1.16,.49,1.75,.72,.15,.06,.32,.12,.49,.19l.05,.02c.14,.06,.32,.12,.51,.19,.19,.07,.38,.14,.58,.2,.07,.02,.14,.05,.22,.07l.64,.21c.17,.05,.36,.11,.55,.17,.42,.13,.81,.24,1.22,.36,.25,.07,.5,.14,.75,.21l1.14,.31c.25,.07,.5,.13,.76,.2l.11,.03c.25,.07,.54,.14,.84,.21l.14,.04c.82,.21,1.67,.41,2.55,.62l.18,.04c.26,.06,.53,.12,.8,.18,.18,.04,.4,.09,.61,.14,.41,.1,.82,.19,1.24,.28,.62,.14,1.24,.28,1.86,.41l.15,.03c.59,.12,1.14,.24,1.69,.36l.17,.03c.75,.17,11,2.63,20.92,5.01,2.35,.56,4.52,1.09,6.53,1.57v-7.3c-1.65-.4-3.29-.79-4.87-1.17-14.39-3.45-20.73-4.98-21.12-5.06l-.17-.03c-.55-.12-1.1-.23-1.64-.35l-.16-.04c-.61-.13-1.21-.26-1.8-.4h-.04c-.39-.09-.77-.18-1.15-.27l-.07-.02c-.18-.04-.36-.08-.54-.12-.29-.06-.54-.12-.79-.18l-.17-.04c-.84-.2-1.65-.39-2.44-.59l-.14-.04c-.27-.07-.54-.13-.8-.2l-.12-.03c-.23-.06-.46-.12-.69-.18l-1.05-.29c-.24-.07-.47-.13-.69-.2-.37-.11-.73-.21-1.08-.32-.19-.06-.36-.11-.52-.16l-.84-.28c-.11-.03-.21-.07-.32-.11l-.11-.04c-.09-.03-.18-.06-.27-.1l-.09-.04c-.12-.04-.24-.09-.35-.13l-.05-.02c-.51-.2-1.02-.41-1.52-.63l-.3-.14c-.39-.17-.78-.35-1.16-.53-.08-.04-.15-.08-.23-.12l-.25-.13c-.19-.1-.39-.2-.59-.3,0-.1,.02-.21,.03-.32l.02-.3c.09-1.12,.16-2.23,.22-3.34l.06-1.28c0-.07,0-.15,0-.23v-.22c.02-.18,.03-.36,.04-.55l.02-.65c.01-.28,.02-.57,.03-.87l.03-1.12c0-.1,0-.21,0-.31l.02-1.22h0v-.07c0-.66,.01-1.33,.01-2.01v-.3c0-.27,0-.5,0-.74v-.18c0-.13,0-.26,0-.38v-.38c0-.16,0-.32-.01-.48,0-.24-.01-.45-.02-.66v-.2c-.01-.29-.02-.58-.03-.87v-.28c-.01-.06-.01-.13-.02-.2v-.06c-.02-.36-.04-.72-.05-1.08v-.11c-.05-.92-.12-1.84-.19-2.71h0v-.17c-.12-1.2-.23-2.28-.37-3.31v-.04s0,0,0,0l-.02-.17c-.05-.34-.09-.68-.15-1.01l-.02-.12c-.29-1.89-.67-3.65-1.11-5.2-.12-.44-.27-.91-.43-1.38-.08-.26-.17-.51-.27-.76-.36-.98-.78-1.91-1.23-2.73-.09-.17-.22-.41-.39-.67-.14-.23-.27-.43-.39-.61h0c-.13-.2-.28-.39-.41-.58l-.03-.04c-.15-.19-.29-.38-.45-.55h0c-.18-.21-.34-.39-.5-.55-1.22-1.24-2.74-2.48-4.68-3.8l-.05-.04c-1.84-1.26-4.02-2.56-6.63-3.96-.4-.21-.79-.42-1.18-.62l-.11-.05c-.39-.2-.78-.4-1.17-.6l-.06-.03c-5.8-2.93-12.38-5.74-17.67-8-2.41-1.03-4.68-2-6.53-2.83l-.13-.06c-.27-.12-.52-.24-.77-.35l-.2-.09c-.22-.1-.44-.21-.66-.31l-.17-.08c-.26-.13-.51-.25-.74-.36-3.92-2-11.32-9.08-13.8-11.45l-.04-.06c-12.77-12.33-13.81-12.56-15.01-12.82-.87-.19-2.23-.19-3.79,.86-2.89,1.95-6.54,7.9-7.64,14.45-.67,4,1.07,9.06,5.17,15.04,1.4,2.04,2.99,4.04,4.5,5.69-12.75-4.97-27.35-10.59-40.05-15.21l-.98-.38c-14.02-5.13-23.17-8.19-27.96-9.35-1.74-.57-3.75-.05-5.58,1.47-3.2,2.65-5.77,8.2-4.3,14.65,.42,1.84,1.57,3.67,3.45,5.5-6.16-2.74-11.6-5.02-16.4-6.12l-.07-.02c-2.67-.55-5.54,.38-7.68,2.49-2.93,2.9-4.07,7.34-3.12,12.19Zm117.05,.42c2.72,.21,5.51,.33,7.81,.4l4.71,3.3-.32,1.13-4.08-1.62h-.01c-2.11-.84-4.58-1.81-7.34-2.9-.26-.1-.51-.2-.78-.31ZM38.28,85.65c2.77,.73,5.5,1.24,8.16,1.54l31.74,14.07c-5.06-1.98-12.94-5.07-20.99-8.22h-.03s-10.71-4.21-10.71-4.21h-.04c-2.91-1.13-5.67-2.21-8.12-3.17Zm-6.74-3.82l1.89,1.93-.25-.1c-.15-.06-.31-.12-.47-.17-.54-.43-.96-1-1.17-1.67Z"/>
            <path class="cls-12" d="M30.58,90.26h.02s-.01,0-.02,0Z"/>
            <path class="cls-12" d="M24.72,80.3l.12,.06s-.08-.04-.12-.06Z"/>
            <path class="cls-12" d="M24.56,80.22l.05,.03s-.03-.02-.05-.03Z"/>
            <path class="cls-12" d="M28.11,74.08s.07,.03,.1,.05l-.1-.05Z"/>
            <path class="cls-12" d="M28.1,74.07s0,0,0,0h0Z"/>
            <path class="cls-12" d="M135.46,58.4h-.44s.44,0,.44,0Z"/>
            <path class="cls-12" d="M31.57,24.89l.45,.15c-.14-.03-.29-.08-.45-.15Z"/>
          </g>
          <g>
            <path class="cls-22" d="M10.26,39.72c10.67,2.45,26.35,9.22,43.08,14.43h.02c23.53,7.32,45.7,14.69,45.7,14.69l1.17-2.67-30.4-13.7s-.54-.1-1.47-.24c-3.92-.69-14.61-2.68-18.57-5.14-4.88-3.03-19.39-11.79-21.34-13.86-2.87-3.04,2.74-12.39,4.55-11.6,5.13,1.22,15.55,4.81,27.76,9.27,0,0,.17,.07,.5,.2,.13,.06,.28,.12,.46,.17,15.81,5.75,34.42,13,48.51,18.52h.02c5.46,2.17,10.26,4.05,13.93,5.52l7.73,3.08,2.1-7.34-7.66-5.36s-14.77-.34-17.43-1.88c-2.69-1.53-13.25-13.79-12.09-20.79,1.17-7.02,5.57-12.79,7.17-12.44,.9,.2,6.55,5.39,13.3,11.91v.03c5.36,5.13,11.06,10.23,14.71,12.1,8.34,4.17,32.1,12.64,39.78,20.48,.12,.12,.23,.24,.34,.38,0,0,.02,.01,.02,.02,.11,.13,.22,.26,.33,.41,.1,.14,.21,.28,.31,.43,0,0,0,0,0,.02,.11,.15,.21,.31,.31,.48,.1,.16,.2,.33,.29,.51,.38,.69,.72,1.46,1.03,2.28,.08,.21,.15,.42,.22,.63,.14,.4,.26,.81,.38,1.23,.21,.74,.4,1.5,.57,2.31,.08,.4,.16,.8,.24,1.21,.08,.45,.16,.91,.23,1.37,.06,.37,.11,.75,.16,1.13,0,0,0,.01,0,.01,.05,.43,.1,.87,.16,1.3,.02,.22,.04,.44,.07,.66,.03,.22,.05,.44,.07,.66,.02,.22,.04,.44,.06,.67,.07,.89,.14,1.78,.18,2.68,.01,.22,.02,.45,.03,.67,.01,.23,.03,.46,.03,.69,.01,.44,.03,.88,.04,1.31,0,.22,.01,.45,.02,.66,0,.22,0,.44,0,.66,0,.2,0,.41,.01,.62,0,.27,0,.54,0,.8,0,.8,0,1.58-.01,2.35,0,.38,0,.76-.02,1.14,0,.13,0,.25,0,.37,0,.34-.02,.68-.03,1.01-.02,.51-.03,1.01-.05,1.49-.01,.23-.02,.45-.03,.67,0,.11,0,.22-.01,.33-.02,.44-.04,.86-.06,1.27-.15,2.75-.34,4.8-.42,5.64,0,.06,0,.11-.01,.15-.02,.18-.03,.28-.03,.28,2.02,1.29,4.23,2.34,6.49,3.22,.14,.06,.29,.12,.45,.17,.15,.06,.31,.12,.48,.17,.16,.06,.33,.12,.51,.18,.33,.12,.68,.23,1.05,.35,.45,.14,.94,.28,1.44,.43,.31,.09,.63,.18,.96,.27,.53,.14,1.08,.29,1.65,.44,.49,.13,.99,.25,1.51,.38,.94,.23,1.92,.47,2.94,.7,.2,.05,.4,.09,.61,.14,.4,.09,.81,.18,1.22,.27,.63,.14,1.27,.28,1.91,.42,.59,.12,1.18,.25,1.77,.38,.05,0,.09,.02,.14,.03,.45,.1,14.03,3.36,26.73,6.41v40.11c-19.87-5.69-66.7-17.9-66.7-17.9l-18.96,10.66c-7.23-.16-23.34-5.68-36.14-10.52-.35-.13-.67-.27-.98-.37-9.59-3.63-17.1-6.81-17.1-6.81l-27.65-10.83s-7.07,.29-13.23-2.21c-6.15-2.48-14.41-6.2-15.85-7.45-3.17-2.75,.14-16.08,2.43-15.26,3.39,1.32,8.07,3.14,13.23,5.17l.02-.02c16.26,6.37,37.29,14.61,37.29,14.61l2.95-6.39-.13-.05-37.65-16.69c-4.39-.43-8.68-1.48-12.7-2.87t-.04-.02c-2.87-1-5.63-2.18-8.16-3.37h-.02c-.09-.05-.17-.08-.24-.15-.08,0-.13-.06-.19-.09-9.46-4.58-15.01-9.14-15.01-9.14-3.87-2.84-1.13-9.36,.67-10.97-3.07-1.69-7.41-6.63-7.41-6.63-1.49-3.65,2.13-11.4,5.75-10.65Z"/>
            <path class="cls-14" d="M117.3,22.49v.03c5.36,5.13,11.06,10.23,14.71,12.1,7.16,3.58,25.7,10.34,35.65,17.14-14.27-1.61-35.76,6.63-35.76,6.63l2.1-7.34-7.66-5.36s-14.77-.34-17.43-1.88c-2.69-1.53-13.25-13.79-12.09-20.79,1.17-7.02,5.57-12.79,7.17-12.44,.9,.2,6.55,5.39,13.3,11.91Z"/>
            <path class="cls-18" d="M82.44,106.73l3.77,15.99-27.65-10.83s-7.07,.29-13.23-2.21c-6.15-2.48-14.28-6.38-15.85-7.45-5.68-3.88-2.16-17.12,2.43-15.26,3.37,1.36,8.07,3.14,13.23,5.17l.02-.02c16.26,6.37,37.29,14.61,37.29,14.61Z"/>
            <path class="cls-13" d="M34.87,80.71c-2.87-1-5.63-2.18-8.16-3.37h-.02c-.09-.05-.17-.08-.24-.15-.08,0-.13-.06-.19-.09-9.46-4.58-15.01-9.14-15.01-9.14-3.87-2.84-1.13-9.36,.67-10.97-3.07-1.69-6.72-2.19-8.11-9.28-1.37-6.99,2.97-11.27,6.59-10.52,10.67,2.45,26.21,11.74,42.93,16.96h.02c23.53,7.32,45.7,14.69,45.7,14.69l-13.79,31.45-37.65-16.69c-4.39-.43-8.68-1.48-12.69-2.87t-.04-.02Z"/>
            <path class="cls-21" d="M68.37,52.23c-4.68,1.05-38.67-9.51-40.76-18.67-1.73-7.59,3.59-12.71,5.4-11.92,5.13,1.22,15.55,4.81,27.76,9.27,0,0,.17,.07,.5,.2,.13,.05,.28,.12,.46,.17l.11,.04c15.78,5.74,34.34,12.97,48.4,18.48h.02s-10.02,16.37-10.02,16.37l-30.4-13.7s-.52-.45-1.47-.24Z"/>
            <path class="cls-6" d="M137.76,99.76s-9.08-22.42-5.86-41.36l-7.72-3.08s-24.84,38.19-21.31,55.26c0,0,14.65,4.75,20.85,3.17,6.2-1.58,14.04-13.99,14.04-13.99Z"/>
            <path class="cls-7" d="M61.26,31.11c-.33-.12-.5-.2-.5-.2l.96,.37c-.18-.05-.33-.12-.46-.17Z"/>
            <path class="cls-1" d="M109.98,49.92h.02s-8.53,13.93-8.53,13.93h0s-1.49,2.44-1.49,2.44l-24.65-11.11-5.74-2.59s-.54-.1-1.47-.24c.4-.52,5.36-7.11,6.39-11.33,.89-3.63-9.49-8.17-12.93-9.57l48.4,18.48Z"/>
            <path class="cls-3" d="M98.81,68.96l-13.79,31.45-36.35-16.11-1.3-.58c-4.39-.43-8.68-1.48-12.69-2.87,2.88,.61,6.19,.77,9.58-.29l1.52-9.6s-29.16-9.78-34.1-13.84c0,0,21.49,8.91,35.13,11.48,0,0,11.76-5.88,6.31-14.32,4.78,1.49,9.5,2.97,14,4.4,17.63,5.6,31.7,10.28,31.7,10.28Z"/>
            <path class="cls-2" d="M26.26,77.1c.14,.09,.29,.15,.44,.22-.34-.21-.58-.37-.67-.44l.24,.22Z"/>
            <path class="cls-1" d="M82.44,106.73l.79,3.35h0s2.98,12.64,2.98,12.64l-27.65-10.83,2.99-6.92-16.41-12.83,.02-.02c3.44,1.35,7.09,2.78,10.72,4.2h.02c13.5,5.29,26.55,10.41,26.55,10.41Z"/>
            <path class="cls-4" d="M131.91,58.39s-4.1,20.81,4.14,36.5c0,0-13.26-14.31-11.86-39.58l7.72,3.08Z"/>
            <path class="cls-11" d="M172.59,93.58c2.16-4.14,2.58-19.68,2.44-32.1,3.35,11.78,1.18,32.11,1.18,32.11,.13,.08,.25,.16,.38,.24,1.92,1.19,3.99,2.16,6.11,2.99,3.5,1.41,23.72,6.25,43.37,10.73v1.62c-21.62-4.02-45.21-8.79-50.46-11.26-1.9-.9-3.1-1.9-3.28-3.03-.06-.42,.01-.85,.25-1.31Z"/>
            <path class="cls-9" d="M175.03,61.48c3.35,11.78,1.18,32.11,1.18,32.11,.13,.08-3.87,1.29-3.87,1.29h0c-.06-.42,.01-.86,.25-1.31,2.16-4.14,2.58-19.68,2.44-32.1Z"/>
            <path class="cls-20" d="M148.45,111.74c3.1,2.55,15.55-26.04,14.57-41.67-.69-10.88-4.3-11.44-6.29-12.03-1.99-.59-14.48,.8-17.96,9.48-3.48,8.68,.82,36.91,9.68,44.22Z"/>
            <path class="cls-19" d="M101.94,70.92c-1.31-1.53-11.95,21.55-14.88,33.57-1.55,6.37,5.3,20.74,7.65,14.73,3.37-8.65,10.97-43.93,7.23-48.29Z"/>
            <path class="cls-16" d="M171.78,82.01s1.13-12.29,.82-14.77c-.31-2.48-.25-9.14-2.58-10.88-2.34-1.74-21.03-12.14-21.03-12.14,0,0,17.71,11.12,20.47,14.52,2.75,3.39,2.33,23.28,2.33,23.28Z"/>
            <path class="cls-16" d="M226.08,143.03v2.28c-26.51-7.28-60.92-17.37-60.92-17.37,0,0,34.51,8.95,60.92,15.09Z"/>
            <path class="cls-16" d="M112.3,127.85s16.48,8.15,22.83,8.9c6.34,.75,14.74-5.57,14.74-5.57,0,0-7.18,3.9-15.85,2.71-8.66-1.19-21.72-6.04-21.72-6.04Z"/>
            <path class="cls-17" d="M33.34,22.96s-1.49,9.08-.2,14.63c0,0-3.78-3.26-3.83-7.05-.05-3.79,4.03-7.59,4.03-7.59Z"/>
            <path class="cls-16" d="M35.43,38.87s20.09,8.69,32.1,9.25c0,0-10.83,.54-20.21-2.63-9.38-3.17-11.89-6.62-11.89-6.62Z"/>
            <path class="cls-17" d="M31.11,88.87s-1.17,7.12-.15,11.48c0,0-2.83-2.57-3-5.53-.24-4.1,2.98-6.99,3.16-5.95Z"/>
            <path class="cls-16" d="M32.75,101.34s15.76,6.81,25.17,7.25c0,0-8.49,.42-15.85-2.06-7.36-2.49-9.33-5.19-9.33-5.19Z"/>
            <path class="cls-17" d="M9.39,38.89s-1.12,9.41-.07,14.91c0,0-3.49-3.12-3.42-6.91,.08-3.79,3.49-8,3.49-8Z"/>
            <path class="cls-17" d="M11.88,58.07c-.44,.75-.82,1.53-1.05,2.32-.97,3.33,1,6.36,1,6.36,.23-2.2,.98-5.06,1.74-7.54-.61-.32-1.17-.7-1.68-1.14Z"/>
            <path class="cls-16" d="M13.46,67.22s17.18,10.1,28.29,13.01c0,0-10-1.75-18.73-6.29-8.73-4.54-9.56-6.71-9.56-6.71Z"/>
            <path class="cls-17" d="M103.72,13.7s-4,6.36-5.22,10.81c0,0-.24-4.57,1.05-7.39,1.29-2.83,4.17-3.42,4.17-3.42Z"/>
            <path class="cls-16" d="M105.01,14.94s11.67,12.45,14.8,21.79c0,0-1.95-8.85-6.67-15.02-4.71-6.18-8.13-6.77-8.13-6.77Z"/>
            <path class="cls-16" d="M226.08,110.21v1.33c-20.08-4.17-41.79-9.32-51.41-13.81,0,0,26.46,6.56,51.41,12.48Z"/>
            <path class="cls-5" d="M59.28,73.17l33.22,10.62-1.02,2.32c-7.96-5.44-19.58-8.18-32.2-12.94Z"/>
            <path class="cls-4" d="M59.28,73.17l33.22,10.62-3.75,8.54c-1.78-1.22-2.5-6.19-2.5-6.19l-41.75-16.9,14.78,3.93Z"/>
            <path class="cls-4" d="M104.8,58.71l-3.08,5.04-1.49,2.42-30.39-13.71c14.44,4.49,29.52,9.55,34.96,6.24Z"/>
            <path class="cls-4" d="M55.89,96.33c13.5,5.29,26.55,10.41,26.55,10.41l.79,3.35c-6.82-4.18-16.67-8.9-27.34-13.76Z"/>
            <path class="cls-4" d="M87.16,95.98l-1.89,4.31-36.35-16.11c13.37,5.07,26.16,9.08,38.24,11.8Z"/>
            <path class="cls-8" d="M132.27,136.51s13.16-8.22,23.21-28.98c10.05-20.76,9.46-47.5,9.46-47.5-13.34-9.71-33.03-1.62-33.03-1.62l2.1-7.34-7.66-5.36s-14.77-.34-17.43-1.88c5.13,.47,12.39-5.18,13.05-6.81,.64-1.58-4.33-13.71-4.65-14.48,5.35,5.13,11.04,10.23,14.7,12.1,8.34,4.17,32.1,12.64,39.78,20.48,.12,.12,.23,.24,.34,.38,0,0,.02,.01,.02,.02,.11,.13,.22,.26,.33,.41,.1,.14,.21,.28,.31,.43,0,0,0,0,0,.02,.11,.15,.21,.31,.31,.48,.1,.16,.2,.33,.29,.51,.38,.69,.72,1.46,1.03,2.28,.08,.21,.15,.42,.22,.63,.14,.4,.26,.81,.38,1.23,.21,.74,.4,1.5,.57,2.31,.08,.4,.16,.8,.24,1.21,.08,.45,.16,.91,.23,1.37,.05,.37,.11,.75,.16,1.13,0,0,0,.01,0,.01,.05,.43,.1,.87,.16,1.3,.02,.22,.04,.44,.07,.66,.03,.22,.05,.44,.07,.66,.02,.22,.04,.44,.06,.67,.07,.89,.14,1.78,.18,2.68,.01,.22,.02,.45,.03,.67,.01,.23,.03,.46,.03,.69,.01,.44,.03,.88,.04,1.31,0,.22,.01,.45,.02,.66,0,.22,0,.44,0,.66,0,.2,0,.41,.01,.62,0,.27,0,.54,0,.8,0,.8,0,1.58-.01,2.35,0,.38,0,.76-.02,1.14,0,.13,0,.25,0,.37,0,.34-.02,.68-.03,1.01-.02,.51-.03,1.01-.05,1.49-.01,.23-.02,.45-.03,.67,0,.11,0,.22-.01,.33-.02,.44-.04,.86-.06,1.27-.15,2.75-.34,4.8-.42,5.64,0,.06,0,.11-.01,.15-.02,.18-.03,.28-.03,.28,2.02,1.29,4.23,2.34,6.49,3.22,.14,.06,.29,.12,.45,.17,.15,.06,.31,.12,.48,.17,.16,.06,.33,.12,.51,.18,.33,.12,.68,.23,1.05,.35,.45,.14,.94,.28,1.44,.43,.31,.09,.63,.18,.96,.27,.53,.14,1.08,.29,1.65,.44,.49,.13,1,.25,1.51,.38,.94,.23,1.92,.47,2.94,.7,.2,.05,.4,.09,.61,.14,.4,.09,.81,.18,1.22,.27,.63,.14,1.27,.28,1.91,.42,.59,.12,1.18,.25,1.77,.38,.05,0,.09,.02,.14,.03,.45,.1,14.03,3.36,26.73,6.41v40.11c-19.87-5.69-66.7-17.9-66.7-17.9l-18.96,10.66c-7.23-.16-23.34-5.68-36.14-10.52,9.35,3.36,27.99,6.61,27.99,6.61Z"/>
            <path class="cls-4" d="M98.81,68.96l-5.45,12.42c-.51-.71,.44-7.63,.44-7.63l-8.52-6.39-18.17-8.68c17.63,5.6,31.7,10.28,31.7,10.28Z"/>
          </g>
        </g>
      </g>
    </g>
  </g>
</svg>