<?xml version="1.0" encoding="UTF-8"?>
<svg xmlns="http://www.w3.org/2000/svg" xmlns:xlink="http://www.w3.org/1999/xlink" viewBox="0 0 231.07 151.87">
  <defs>
    <style>
      .cls-1 {
        fill: #fff;
      }

      .cls-2 {
        fill: #f5a996;
      }

      .cls-2, .cls-3, .cls-4, .cls-5, .cls-6 {
        mix-blend-mode: soft-light;
        opacity: .97;
      }

      .cls-7 {
        fill: url(#_Áåçûìÿííûé_ãðàäèåíò_152);
      }

      .cls-8 {
        isolation: isolate;
      }

      .cls-3 {
        fill: #f6fbfc;
      }

      .cls-4 {
        fill: #f5b08f;
      }

      .cls-9 {
        opacity: .3;
      }

      .cls-9, .cls-10, .cls-11 {
        fill: #d77290;
      }

      .cls-9, .cls-10, .cls-11, .cls-12, .cls-13 {
        mix-blend-mode: multiply;
      }

      .cls-10 {
        opacity: .31;
      }

      .cls-11 {
        opacity: .5;
      }

      .cls-14 {
        fill: #ea6d7d;
      }

      .cls-15 {
        fill: #ac3e53;
      }

      .cls-12 {
        fill: url(#radial-gradient);
        opacity: .8;
      }

      .cls-5 {
        fill: #f5d3d2;
      }

      .cls-6 {
        fill: #f5ee90;
      }

      .cls-13 {
        fill: #f4bbc0;
        opacity: .6;
      }

      .cls-16 {
        fill: url(#_Áåçûìÿííûé_ãðàäèåíò_54);
        mix-blend-mode: screen;
      }

      .cls-17 {
        fill: url(#_Áåçûìÿííûé_ãðàäèåíò_151);
      }
    </style>
    <radialGradient id="radial-gradient" cx="-1129.8" cy="-679.37" fx="-1129.8" fy="-679.37" r="489.92" gradientTransform="translate(-1275.71 564.5) rotate(-172.37) scale(1 -1)" gradientUnits="userSpaceOnUse">
      <stop offset="0" stop-color="#e7e5f0"/>
      <stop offset=".17" stop-color="#e2dfec"/>
      <stop offset=".37" stop-color="#d6d0e1"/>
      <stop offset=".59" stop-color="#c3b7cf"/>
      <stop offset=".82" stop-color="#a895b7"/>
      <stop offset="1" stop-color="#8f76a1"/>
    </radialGradient>
    <linearGradient id="_Áåçûìÿííûé_ãðàäèåíò_152" data-name="Áåçûìÿííûé ãðàäèåíò 152" x1="-142.01" y1="915.82" x2="-142.01" y2="835.01" gradientTransform="translate(-846.56 108.91) rotate(97.63) scale(1 -1)" gradientUnits="userSpaceOnUse">
      <stop offset="0" stop-color="#f08578"/>
      <stop offset=".98" stop-color="#f8b682"/>
    </linearGradient>
    <linearGradient id="_Áåçûìÿííûé_ãðàäèåíò_151" data-name="Áåçûìÿííûé ãðàäèåíò 151" x1="-158.02" y1="1063.19" x2="-158.02" y2="846.56" gradientTransform="translate(-846.56 108.91) rotate(97.63) scale(1 -1)" gradientUnits="userSpaceOnUse">
      <stop offset=".02" stop-color="#f8b682"/>
      <stop offset="1" stop-color="#f08578"/>
    </linearGradient>
    <linearGradient id="_Áåçûìÿííûé_ãðàäèåíò_54" data-name="Áåçûìÿííûé ãðàäèåíò 54" x1="-214.76" y1="923.24" x2="-115.97" y2="923.24" gradientTransform="translate(-846.56 108.91) rotate(97.63) scale(1 -1)" gradientUnits="userSpaceOnUse">
      <stop offset="0" stop-color="#e84610"/>
      <stop offset=".11" stop-color="#d7410e"/>
      <stop offset=".32" stop-color="#ac340c"/>
      <stop offset=".61" stop-color="#661f07"/>
      <stop offset=".97" stop-color="#070301"/>
      <stop offset="1" stop-color="#010101"/>
    </linearGradient>
  </defs>
  <g class="cls-8">
    <g id="Calque_2" data-name="Calque 2">
      <g id="Calque_1-2" data-name="Calque 1">
        <g>
          <path class="cls-12" d="M231.07,83.52c-21.06-.15-66.31-.81-72.29-7.32-7.78-8.47-25.28-53.27-33.02-54.69-7.74-1.42-23.37-4.13-35.07-7.07-11.7-2.94-24.68-7.98-30.79-3.67-6.11,4.3-14.39,23.01-16.32,25.39-1.92,2.38-27.32,1.8-29.71,14.74-2.39,12.95,7.16,21.38,7.36,23.6,.2,2.22-2.95,6.82-1.88,14.03,1.07,7.2,7.53,11.01,8.25,17.3,2.05,18.07,12.29,19.67,15.48,22.58,3.19,2.9,3.96,13.58,10.39,17.41,6.42,3.84,14.54,7.33,26.5,5.58,11.96-1.75,43.12-1.38,48.59-3.95,5.46-2.57,15.15-9.59,20.54-10.34,4.97-.69,68.36,14.36,81.98,14.73V83.52Z"/>
          <path class="cls-1" d="M231.07,81.52l-5.96-7.09c-34.89-.03-73.57-1-79.09-2.56-5.08-3.86-16.48-25.82-23.15-40.62-3.75-11.58-12.25-20.35-18-21.85-2.27-.6-7.58-1.06-16.05-1.77l-2.77-.23c-4.55-.38-10.2-.9-13.58-1.45-4.16-.68-9.2-2.3-13.26-3.61C54.38,.77,51.77-.03,49.81,0c-1.25,.02-2.66,.32-4.18,.9-3.22,1.01-5.62,2.49-7.14,4.39-.53,.49-.98,.99-1.34,1.46-.95,1.24-2.03,3.68-4.88,10.34-1.4,3.27-2.95,6.89-4.52,10.34-1.64-.07-2.87-.08-3.72-.05-7.77,.32-20.11,7.27-22.78,12.82-2.7,5.65-.78,18.73,3.61,24.55,.59,.78,1.27,1.46,1.98,2.03-.96,1.64-1.92,3.73-2.67,6.33-.53,1.82-.74,3.85-.63,6.05,.07,9.6,5.49,14.39,6.85,15.45,.47,.4,.96,.76,1.46,1.08,.13,3.81,.85,10.39,3.97,16.31,2.44,5.11,5.35,7.23,6.76,8.01,.05,.04,.1,.08,.16,.12l.87,.49c.28,.12,2.33,.93,5.85,1.25,3.78,14.56,11.29,18.36,13.09,19.08,.42,.19,.82,.36,1.21,.49,1.03,.36,2.17,.67,3.39,.92v-.07s.02,.15,.02,.15c.74,.12,1.49,.22,2.22,.3,.49,.06,.93,.11,1.36,.15l.21,.02c.39,.04,.82,.07,1.25,.1h.1c.52,.04,1.04,.06,1.55,.08,.3,0,.58,.01,.85,.02h0s.19,0,.19,0c.92,.02,1.84,0,2.83-.03,5.83-.17,10.47-1.1,11.96-1.43,.06,0,.11-.02,.17-.03,4.19-.12,35.74-1.12,45.78-3.53,1.09-.25,2-.55,2.76-.9,3.46-1.58,7.07-4.26,10.25-6.62,1.98-1.47,4.94-3.66,6.12-4.09,2.44,.03,13.77,1.55,24.74,3.01,20.08,2.69,45.06,6.03,58.4,6.49l3.45-1.49c.35-.4,6.95-2.44,9.74-14.51v-38.46ZM122.53,31.14l-.26-.98c.2,.27,.37,.57,.5,.87l-.24,.11Zm.57,2.16v-.05s-.17-1.82-.17-1.82c.19,.6,.25,1.23,.17,1.87Z"/>
          <path class="cls-7" d="M63.33,34.7s-32.82-3.18-39.13-2.93c-6.31,.26-17.17,6.51-19,10.34-1.83,3.83-.44,15.24,3.15,20.02,1.72,2.29,5.06,3.32,5.06,3.32,0,0-3.2,2.54-5.04,8.9-1.84,6.36,1.69,16.96,7.86,18.56,0,0-1.09,16.37,9.05,23.67,0,0,2.71,1.13,7.68,1.03,0,0,3.08,16.49,12.23,19.69,9.15,3.21,24.12-.07,24.12-.07,0,0,10.25-17.34,9.65-53.98-.6-36.63-15.63-48.55-15.63-48.55Z"/>
          <path class="cls-17" d="M144.13,75.85s-.03,0-.1-.05c-6.9-3.12-21.75-32.06-25.26-42.97,0-.02-.01-.02-.01-.04-.01-.02-.01-.04-.01-.04-3.49-10.93-11.17-18.13-14.99-19.13-2.29-.6-10.26-1.22-18.09-1.88-5.31-.45-10.56-.94-13.92-1.5-8.32-1.36-18.99-5.92-21.86-5.87-2.88,.05-7.66,2.93-9.27,5.03-1.31,1.71-5.78,13.33-10.15,22.54-.98,2.1-1.96,4.06-2.9,5.77-5.09,9.24-12.9,19.17-13.27,21.01-.12,.61,.47,1.7,1.52,2.87,.01,.02,.04,.06,.07,.1,1.07,1.22,2.61,2.53,4.3,3.56,.02,0,.05,.02,.07,.03,1.58,.94,3.3,1.63,4.94,1.74,0,0,.23,0,.65,0,5.86-.28,21.9-8.78,27.23-25.66l-.35-7.65v-.33s9.1,.23,10.61,1.32c.03,.02,.06,.04,.08,.08,1.53,1.95,4.27,27.71,15.54,48.47,0,0-2.4,33.93-7.23,48.68,0,.05-.01,.09-.03,.12-.41,1.24-.82,2.33-1.27,3.26-.05,.12-.12,.21-.17,.33-.27,.57-.56,1.07-.88,1.49-.02,.05-.05,.08-.07,.11,0,0,35.08-.97,45.29-3.42,.81-.19,1.47-.4,1.93-.61,6.33-2.9,13.95-10.46,17.56-11.09,3.6-.62,61.59,8.7,83.95,9.48,0,0,13.51-15.36,7.07-52.78,0,0-74.09-.07-80.97-2.96Z"/>
          <path class="cls-10" d="M47.84,138.11c.68,.11,1.38,.2,2.05,.28,.45,.06,.86,.1,1.29,.14,.9,.08,1.79,.14,2.66,.16,.31,0,.63,.01,.92,.02,.97,.03,1.9,.01,2.81-.02,5.48-.16,9.86-1.03,11.27-1.35,.3-.05,.47-.09,.47-.09,.02-.03,.04-.06,.07-.11,.3-.45,.6-.95,.88-1.49,.05-.12,.12-.21,.17-.33,6.98-13.34,11.28-47.02,11.28-47.02l8.22,8.88s-6.71-14.46-12.32-30.2c-2.52-7.05-4.81-14.34-6.19-20.72-1.33-6.21-1.79-11.53-.74-14.92,4.52-14.61,15-19.57,15-19.57-5.31-.45-10.56-.94-13.92-1.5-8.32-1.36-18.99-5.92-21.86-5.87,3.76,3.92,.45,28.22-.93,31.14-6.47,13.66-26.59,26.39-30.07,26.03-3.27-.33-4.44-2.53-4.57-2.81,.36,1.08,.88,2.02,1.5,2.85,.01,.02,.04,.06,.07,.1,1.22,1.59,2.79,2.74,4.3,3.56,.02,0,.05,.02,.07,.03,2.59,1.37,4.94,1.74,4.94,1.74,0,0,.23,0,.65,0,.33,0,.8,.02,1.35,.04,6.58,.2,27.14,1.02,29.44,4.17,2.72,3.75,.6,24.52-2.82,25.39-3.41,.87-37.59-3.71-37.59-3.71,10.2,2.6,37.6,5.61,39.1,6.14,1.5,.53,1.87,16.27-1.05,17.61-2.72,1.27-19.06,.99-21.1,.96,9.98,.85,25.33,1.16,25.33,1.16,1.76,2.87,.37,14.19-.84,15.4-1.11,1.12-8.49,3.5-9.67,3.88-.11,.04-.16,.05-.16,.05Z"/>
          <path class="cls-4" d="M27.58,37.72s1.28-.44,2.28,.31c1,.74-.46,12.58-4.23,17.6-3.77,5.03-10.78,1.91-10.78,1.91l12.73-19.82Z"/>
          <path class="cls-11" d="M52.23,23.47l.5,10.25,2.46,.23s-.74-2.36-2.96-10.48Z"/>
          <path class="cls-9" d="M67.75,134.15l1.56,3.08s10.91-25.54,12.39-48.95c0,0-12.56-44.23-18.36-53.59l-10.61-1.32s.34,6.44,.36,7.98c.02,1.54-1.8,5.53-1.8,5.53,0,0,5.57,3.34,6.18,6.95,.25,1.48,.02,3.65-.4,5.75-.61,3.02-1.63,5.93-2.24,6.55-1.02,1.08-12.51,.87-12.51,.87,0,0,23.77,2.29,25.81,3.46,2.06,1.15,7.78,21.73,1.86,24.79,0,0,1.8,12.23-.29,15.81-2.08,3.57-6.18,4.47-6.18,4.47,0,0,6.09,1.36,6.55,6.26,.44,4.91-1.65,8.91-3.73,10.52-.19,.15-.44,.31-.74,.48-2.79,1.6-9.77,4.2-10.72,4.54l9.03-2.24,3.84-.95Z"/>
          <path class="cls-9" d="M225.1,78.81s-74.09-.07-80.97-2.96c-6.86-2.91-21.87-32.11-25.37-43.05,.23,1.53,7.61,50.47,11,54.17,3.47,3.78,69.13,8.37,95.34-8.15Z"/>
          <path class="cls-13" d="M144.13,75.85s-.03,0-.1-.05c-.05-.02-.1-.06-.15-.08-1.55-.89-10.17-7.13-25.1-42.88,.23,1.3,7.84,43.5,8.55,65.03,.69,21.9-12.73,35.95-12.73,35.95,.81-.19,1.47-.4,1.93-.61,6.33-2.9,13.95-10.46,17.56-11.09,3.6-.62,61.59,8.7,83.95,9.48,0,0,13.51-15.36,7.07-52.78,0,0-74.09-.07-80.97-2.96Z"/>
          <path class="cls-14" d="M27.58,37.72s2.58,.09,2.22,6.03c-.44,7.21-4.7,12.51-4.7,12.51,0,0,5.39-5.17,5.38-15.53s-2.89-3.01-2.89-3.01Z"/>
          <path class="cls-5" d="M16.42,55.1s2.72,2.63,8.68,1.16c0,0-2.83,4.25-10.24,1.28l1.57-2.44Z"/>
          <path class="cls-5" d="M25.59,40.83s2.12,.56,3.83-1.17c0,0-.63-1.71-1.84-1.94l-1.99,3.1Z"/>
          <path class="cls-11" d="M47.84,138.11c.68,.11,1.38,.2,2.05,.28,.45,.06,.86,.1,1.29,.14,.9,.08,1.79,.14,2.66,.16,.31,0,.63,.01,.92,.02,.97,.03,1.9,.01,2.81-.02,5.48-.16,9.86-1.03,11.27-1.35,.3-.05,.47-.09,.47-.09,.02-.03,.04-.06,.07-.11,.3-.45,.6-.95,.88-1.49,.05-.12,.12-.21,.17-.33,6.98-13.34,11.28-47.02,11.28-47.02l-18.36-53.59-10.61-1.32s.54,6.42,.01,9.4c-.52,2.98-6.68,16.99-25.53,24.28,6.58,.2,27.14,1.02,29.44,4.17,2.72,3.75,.6,24.52-2.82,25.39-3.41,.87-37.59-3.71-37.59-3.71,10.2,2.6,37.6,5.61,39.1,6.14,1.5,.53,1.87,16.27-1.05,17.61-2.72,1.27-19.06,.99-21.1,.96,9.98,.85,25.33,1.16,25.33,1.16,1.76,2.87,.37,14.19-.84,15.4-1.11,1.12-8.49,3.5-9.67,3.88-.11,.04-.16,.05-.16,.05Z"/>
          <polygon class="cls-11" points="27 38.62 16.34 36.22 23.82 36.23 24.63 33.48 29.99 32.99 27 38.62"/>
          <path class="cls-11" d="M71.99,92.94s-10.83,3.09-18.17,3.68c-7.34,.59-21.11-.76-21.11-.76,0,0,18.94,2.95,22.62,3.19,3.67,.24,14.65-3.79,14.65-3.79,0,0,1.11-1.12,2.02-2.32Z"/>
          <path class="cls-11" d="M63.52,115.53s-5.48,1.04-10.69,1.5c-5.21,.46-19.87,.57-19.87,.57,0,0,21.94,.96,24.74,.62,2.8-.34,5.81-2.69,5.81-2.69Z"/>
          <path class="cls-11" d="M51.27,46.9s-7.04,14.29-24.07,20.17c0,0,20.3-4.65,28.07-16.99l-4-3.18Z"/>
          <path class="cls-11" d="M27.21,67.06s-6.49-1.83-7.64-5.56c0,0-2.67,.35-5.24-2.75,0,0,2.51,7.82,12.88,8.31Z"/>
          <path class="cls-4" d="M41.73,8.27s1.24,5.05,5.47,5.72c4.24,.67,2.68-9.6,2.68-9.6,0,0-6.03,.85-8.16,3.88Z"/>
          <path class="cls-6" d="M5.2,42.11s2.81,6.18,3.9,12.01c1.09,5.83-.74,8.01-.74,8.01,0,0-5.89-9.49-3.15-20.02Z"/>
          <path class="cls-6" d="M16.2,93.89s3.1,3.66,5.99,10.66c2.89,6.99,2.72,11.75,2.72,11.75,0,0-7.52-2.98-8.71-22.4Z"/>
          <path class="cls-6" d="M8.37,74.35s2.17,5.82,3.6,10.56c1.43,4.73,1.17,6.31,1.17,6.31,0,0-7.09-4.87-4.77-16.86Z"/>
          <path class="cls-6" d="M32.97,117.61s1.72,4.55,4.74,10.63c1.99,3.99,6.52,8.67,6.52,8.67,0,0-8.01-2.67-11.27-19.29Z"/>
          <path class="cls-16" d="M79.05,16.88s13.37-2.12,24.04,9.49c10.67,11.61,7.57,88.43,4.09,92.92-3.48,4.49-36.66-57.82-36.73-78.6-.07-20.79,8.61-23.8,8.61-23.8Z"/>
          <path class="cls-11" d="M143.88,75.72s-2.72,9.91-14.12,11.25l-10.99-54.13s16.86,37.45,25.1,42.88Z"/>
          <path class="cls-15" d="M63.33,34.7s-6.34,4.54-7.79,6.77c-1.45,2.23-2.19,7.09-2.19,7.09l-2.09-1.66s1.64-3.46,1.81-5.53c.17-2.07-.36-7.98-.36-7.98,0,0,9,.28,10.61,1.32Z"/>
          <path class="cls-15" d="M66.34,132.32s4.66-1.1,6.61-17.31c1.96-16.23-.35-39.24-2.08-42.71-1.44-2.91-10.41-9.84-13.81-12.71-.61,3.02-1.63,5.93-2.24,6.55-1.02,1.08-12.51,.87-12.51,.87,0,0,23.77,2.29,25.81,3.46,2.06,1.15,7.78,21.73,1.86,24.79,0,0,1.8,12.23-.29,15.81-2.08,3.57-6.18,4.47-6.18,4.47,0,0,6.09,1.36,6.55,6.26,.44,4.91-1.65,8.91-3.73,10.52Z"/>
          <path class="cls-15" d="M54.88,137.34l9.03-2.24,1.69-2.3c-2.79,1.6-9.77,4.2-10.72,4.54Z"/>
          <path class="cls-3" d="M109.71,133.16s-21.06,2.72-37.95,3.45c0,0,18.95-5.84,37.95-3.45Z"/>
          <path class="cls-3" d="M215.43,125.52s-44.18-1.35-68.08-3.83c0,0,45.57,8.3,67.55,7.72l.52-3.89Z"/>
          <path class="cls-3" d="M104.98,16.74s9.31,4.08,11.87,14.55c2.56,10.47,5.73,35.01,5.73,35.01,0,0-4.96-38.26-17.6-49.56Z"/>
          <path class="cls-3" d="M28.6,114.82s14.95,1.89,23.89,.89c0,0-9.39,3.48-23.89-.89Z"/>
          <path class="cls-3" d="M44.06,133.85s8,1.5,13.4-.64c0,0-6.86,4.82-13.4,.64Z"/>
          <path class="cls-3" d="M16.66,89.74s18.08,4.92,34.56,4.63c0,0-18.79,3.4-34.56-4.63Z"/>
          <path class="cls-3" d="M41.44,10.49s-5.43,7.7-7.46,16.75c0,0,6.36-6.5,7.46-16.75Z"/>
          <path class="cls-3" d="M53.77,6.44s5.73,4.32,12.57,5.81c6.84,1.49,22.03,.89,22.03,.89,0,0-25.5-2.6-34.61-6.7Z"/>
          <path class="cls-3" d="M223.19,79.94s-50.61,6.32-75.36,.43c0,0,29.67-1.21,75.36-.43Z"/>
          <path class="cls-2" d="M63.75,71.02c2.79,.99,8.73,10.73,5.8,17.02,0,0-2.34-8.57-3.4-12.35-1.06-3.78-2.4-4.68-2.4-4.68Z"/>
          <path class="cls-2" d="M68.59,98.01s2.45,14.02-4.91,16.33c0,0,5.65-8.89,4.91-16.33Z"/>
          <path class="cls-2" d="M69.14,126.17s-4.15,4.7-4.57,6.49c0,0,3.96-1.46,4.57-6.49Z"/>
          <path class="cls-9" d="M57.17,72.34s2.89,5.47,2.12,13.7c-.77,8.23-5.47,10.57-5.47,10.57,0,0,6.09-10.73,3.35-24.28Z"/>
          <path class="cls-9" d="M55.99,100.51s3,2.67,3.34,7.5c.34,4.84-4.38,8.03-4.38,8.03,0,0,3.17-7.1,1.04-15.53Z"/>
          <path class="cls-9" d="M59.28,119.62s2.25,2.64,2.18,6.26c-.06,3.62-3.35,7.42-3.35,7.42,0,0,2.06-4.18,1.16-13.69Z"/>
        </g>
      </g>
    </g>
  </g>
</svg>