<?xml version="1.0" encoding="UTF-8"?>
<svg xmlns="http://www.w3.org/2000/svg" xmlns:xlink="http://www.w3.org/1999/xlink" viewBox="0 0 233.42 146.59">
  <defs>
    <style>
      .cls-1 {
        fill: #fff;
      }

      .cls-2 {
        fill: #f5a996;
      }

      .cls-2, .cls-3, .cls-4, .cls-5, .cls-6 {
        mix-blend-mode: soft-light;
        opacity: .97;
      }

      .cls-7 {
        fill: url(#_Áåçûìÿííûé_ãðàäèåíò_152);
      }

      .cls-8 {
        isolation: isolate;
      }

      .cls-3 {
        fill: #f6fbfc;
      }

      .cls-4 {
        fill: #f5b08f;
      }

      .cls-9 {
        opacity: .3;
      }

      .cls-9, .cls-10, .cls-11 {
        fill: #d77290;
      }

      .cls-9, .cls-10, .cls-11, .cls-12, .cls-13 {
        mix-blend-mode: multiply;
      }

      .cls-10 {
        opacity: .31;
      }

      .cls-11 {
        opacity: .5;
      }

      .cls-14 {
        fill: url(#_Áåçûìÿííûé_ãðàäèåíò_59);
        mix-blend-mode: screen;
      }

      .cls-15 {
        fill: #ea6d7d;
      }

      .cls-16 {
        fill: #ac3e53;
      }

      .cls-17 {
        fill: #b34d62;
      }

      .cls-12 {
        fill: url(#radial-gradient);
        opacity: .8;
      }

      .cls-5 {
        fill: #f5d3d2;
      }

      .cls-6 {
        fill: #f5ee90;
      }

      .cls-13 {
        fill: #f4bbc0;
        opacity: .6;
      }

      .cls-18 {
        fill: url(#_Áåçûìÿííûé_ãðàäèåíò_151);
      }
    </style>
    <radialGradient id="radial-gradient" cx="882.76" cy="586.39" fx="882.76" fy="586.39" r="372.9" gradientTransform="translate(-674.69 -742.24) rotate(14.61)" gradientUnits="userSpaceOnUse">
      <stop offset="0" stop-color="#e7e5f0"/>
      <stop offset=".17" stop-color="#e2dfec"/>
      <stop offset=".37" stop-color="#d6d0e1"/>
      <stop offset=".59" stop-color="#c3b7cf"/>
      <stop offset=".82" stop-color="#a895b7"/>
      <stop offset="1" stop-color="#8f76a1"/>
    </radialGradient>
    <linearGradient id="_Áåçûìÿííûé_ãðàäèåíò_152" data-name="Áåçûìÿííûé ãðàäèåíò 152" x1="-649.56" y1="217.98" x2="-649.56" y2="65.25" gradientTransform="translate(106.46 -594.66) rotate(-75.39)" gradientUnits="userSpaceOnUse">
      <stop offset="0" stop-color="#f08578"/>
      <stop offset=".98" stop-color="#f8b682"/>
    </linearGradient>
    <linearGradient id="_Áåçûìÿííûé_ãðàäèåíò_151" data-name="Áåçûìÿííûé ãðàäèåíò 151" x1="-648.32" y1="303.58" x2="-648.32" y2="155.17" gradientTransform="translate(106.46 -594.66) rotate(-75.39)" gradientUnits="userSpaceOnUse">
      <stop offset=".02" stop-color="#f8b682"/>
      <stop offset="1" stop-color="#f08578"/>
    </linearGradient>
    <linearGradient id="_Áåçûìÿííûé_ãðàäèåíò_59" data-name="Áåçûìÿííûé ãðàäèåíò 59" x1="-667.89" y1="207.11" x2="-606.76" y2="207.11" gradientTransform="translate(106.46 -594.66) rotate(-75.39)" gradientUnits="userSpaceOnUse">
      <stop offset="0" stop-color="#010101"/>
      <stop offset=".03" stop-color="#070301"/>
      <stop offset=".39" stop-color="#661f07"/>
      <stop offset=".68" stop-color="#ac340c"/>
      <stop offset=".89" stop-color="#d7410e"/>
      <stop offset="1" stop-color="#e84610"/>
    </linearGradient>
  </defs>
  <g class="cls-8">
    <g id="Calque_2" data-name="Calque 2">
      <g id="Calque_1-2" data-name="Calque 1">
        <g>
          <path class="cls-12" d="M233.42,94.56c-15.38-1.64-39.06-2.67-45.26-6.16-8.85-4.98-10.67-25.37-14.5-32.17-3.83-6.8-10.17-13.21-14.09-14.06-3.92-.84-32.92,5.53-46.67-.02C99.13,36.61,57.96,7.86,43.78,8.97c-14.19,1.11-18.24,11.27-15.38,16.29,2.86,5.02,38.2,18.68,42.15,21.45,3.95,2.77,28.98,14.83,30.61,15.75,1.63,.92,1.72,5.23-.4,6.19-2.12,.97-28.3-2.62-36.96-4.93-8.66-2.31-46.87-12.16-52.21-8.08-5.34,4.08-10.41,16.39-3.4,21.15,7.01,4.77,46.56,10.53,49.36,10.9,2.8,.37,26.55,1.81,26.93,2.42s-1.84,1.95-3.69,4.92c-1.84,2.97-2.55,12.84,.29,17.32,2.84,4.48,11.75,6.67,11.25,8.69-2.29,9.2,4.72,20.02,8.63,20.91,3.91,.89,16.24-2.15,27.14-1.18,10.9,.97,27.42,2,36.88-.32,9.42-2.31,9.81-10.28,13.52-12.24,3.27-1.73,43.69,15.42,54.93,18.37v-52.03Z"/>
          <path class="cls-1" d="M233.42,89.28c-2.78-.35-6.94-.87-11.73-1.52l-.21-.03c-6.9-.93-13.16-1.86-18.63-2.75l-.19-.05h-.17s-.15-.03-.15-.03c-5.29-.87-9.76-1.7-13.29-2.46l-.61-.13c-6.48-1.44-7.89-2.29-8.06-2.4-2.89-2.4-8.56-17.4-11.29-24.61-2.03-5.36-3.21-8.46-4.05-9.9l-.02-.03c-2.59-4.45-7.93-9.58-11.65-11.21-1.54-.69-3.78-.75-7.96-.25-2.37,.28-5.1,.72-7.74,1.14-3.71,.59-7.55,1.21-9.94,1.3-4.18,.17-12.03-.43-16.72-.79l-.92-.07c-21.98-9.5-29.9-13.61-32.69-15.39-1.11-.7-2.31-1.54-3.8-2.64-1.1-.81-2.2-1.64-3.37-2.53C62.35,8.91,53.42,2.14,40.64,.32c-10.96-1.57-15.71,3.07-17.57,5.98-2.8,4.38-2.43,9.65-.64,12.4,.66,1,1.9,2.26,6.4,4.72l.23,.41,1.04,.26c4.76,2.53,11.06,5.39,16.14,7.71,3.27,1.49,6.1,2.78,7.21,3.39,1.2,.66,2.65,1.52,4.18,2.42,.77,.46,1.57,.93,2.37,1.4l.32,.18c2.85,1.67,6.44,3.66,9.53,4.64,2.7,.85,15.14,6.78,24.6,11.68-.08,.37-.15,.75-.23,1.13-.22,1.05-.45,2.17-.69,3.34-6.21-.71-15.15-1.85-26.16-3.33l-.18-.02c-.07,0-.14-.01-.2-.02h-.08c-.4-.07-.76-.12-1.08-.16-.25-.03-.47-.06-.66-.09l-.15-.02c-.27-.04-.47-.07-.57-.08-4.65-.62-8.14-1.11-9.13-1.25-.87-.28-1.77-.55-2.65-.8-8.34-2.49-18.75-4.72-27.84-5.99-16.08-2.23-18.68-.27-19.8,.57C-.22,52.74-.44,63.64,.32,65.99c.24,.72,.79,2.42,6,5.29,1.81,.99,5.46,2.8,9.61,3.76,4.16,.97,10.21,1.81,15.56,2.55,2.78,.38,5.41,.75,7.19,1.06l.2,.04c.59,.1,1.18,.2,1.78,.29,1.48,.24,2.98,.46,4.44,.68,2.4,.36,5.68,.84,6.41,1.09,1.33,.49,3.35,.6,7.45,.77,.78,.03,1.6,.07,2.43,.11l.1,.03h.24s14.86,1.77,14.86,1.77c-1.14,.98-2.1,2.12-2.75,3.42-1.72,3.49-1.49,7.83-1,10.84,.52,3.23,1.84,7.76,3.89,9.93,1.57,1.64,4.99,3.68,7.47,5.05-.37,1.9-.54,4.49,.27,7.2,1.41,7.49,7.11,12.75,11.86,13.52,4.28,.71,22.06-.38,25.79-.62,.49,0,3.37-.06,6.91-.08h.28c4.34,0,10.31,.05,13.32,.37,3.7,.39,8.5,.22,13-.47l.73-.11c1.84-.3,3.45-.67,4.64-1.07,2.6-.87,5.47-3.76,9.25-7.76,.64-.68,1.43-1.52,2.02-2.1,6.43,1.53,34.98,9.91,52.89,15.26l2.35,.7,1.38-2.02c.23-.34,2.22-3.28,4.53-7.78v-38.4Z"/>
          <path class="cls-7" d="M71.62,20.13c1.35,1,2.67,1.94,3.99,2.77,7,4.47,32.57,15.45,45.57,20.94,4.65,1.96,7.69,3.22,7.69,3.22,0,0,25.46,16.6,28.57,23.83,1.93,4.49-9.78,25.97-20.46,41.6-6.47,9.46-12.55,16.79-15,16.93,0,0-20.95,1.35-25.1,.66-4.17-.68-11.72-7.59-8.71-19.1l-.08-.03c-.78-.4-7.04-3.65-8.95-5.64-1.09-1.16-2.41-4.49-3-8.14-.51-3.12-.48-6.45,.69-8.83,1.94-3.93,8.63-6.08,11.69-6.86,.83-.22,1.39-.34,1.52-.37-.83-.1-18.06-2-23.67-2.5-1.43-.13-2.89-.22-4.32-.29-.04-.01-.07,0-.1,0-.04-.01-.07,0-.08,0-.04,0-.07,0-.07,0-4.22-.21-7.99-.26-9.14-.69-1.36-.51-6.69-1.17-11.48-1.93-.66-.1-1.31-.22-1.95-.32-5.17-.9-16.34-2.12-22.56-3.57-6.21-1.44-12.73-5.45-13.18-6.82-.44-1.35-.24-10.65,3.52-13.5,3.56-2.68,27.72,.91,44.66,5.96,.98,.28,1.94,.58,2.86,.87,0,0,3.89,.55,9.47,1.3,0,0,.18,.02,.49,.07,.22,.03,.52,.06,.87,.11,.3,.04,.64,.08,1.02,.14,.16,.03,.33,.04,.51,.06,14.01,1.89,35.14,4.63,36.83,4.19,2.56-.67,4.33-3.41,3.03-5.36-1.28-1.94-31.11-16.65-35.92-18.17-2.71-.86-6.03-2.67-9.16-4.52h-.01c-2.43-1.43-4.77-2.85-6.63-3.87-3.03-1.66-15.83-7.07-23.69-11.28-.03,0-.06-.03-.09-.04,0-.02-.02-.02-.04-.02h-.03s-.04-.03-.04-.03c-3.06-1.63-5.33-3.08-5.95-4.02-2.19-3.38-1.04-15.5,14.93-13.21,13.75,1.96,23.06,10.32,31.45,16.49Z"/>
          <path class="cls-11" d="M99.33,48.59l32.65,6.93,7.94,45.7-2.93,11.26c-6.47,9.46-12.55,16.79-15,16.93,0,0-20.95,1.35-25.1,.66l3.82-5.15-6.3-.43,5.23-2.34s4.06-1.25,4.53-2.02c.47-.77,3.22-13.4-3.36-16.1,0,0-9.83,4.12-12.64,6.94l-.08-.03c-.78-.4-7.04-3.65-8.95-5.64,0,0,9.52-2.55,14.07-3.24,4.54-.69,6.32-18.2,2.69-21.64l-7.38,1.05-26.57-3.16s.06-.01,.1,0c2.5,.02,22.93,.13,25.4-.98,2.62-1.19,3.82-10.86,.95-12.89-2.21-1.56-15.54-3.6-21.51-4.46,14.01,1.89,35.14,4.63,36.83,4.19,2.56-.67,4.33-3.41,3.03-5.36-1.28-1.94-31.11-16.65-35.92-18.17-2.71-.86-6.03-2.67-9.16-4.52l37.63,12.49Z"/>
          <path class="cls-10" d="M71.62,20.13c1.35,1,2.67,1.94,3.99,2.77,7,4.47,32.57,15.45,45.57,20.94l-6.04,30.81s-29.65,7.6-26.6,6.81c.83-.22,1.39-.34,1.52-.37-.83-.1-18.06-2-23.67-2.5-1.43-.13-2.89-.22-4.32-.29-.04-.01-.07,0-.1,0-.04-.01-.07,0-.08,0-.04,0-.07,0-.07,0-4.22-.21-7.99-.26-9.14-.69-1.36-.51-6.69-1.17-11.48-1.93l-.17-.21s10.41,.36,12.91-2.36c2.48-2.71,5.27-10.66-2.09-15.56-.06-.04-.11-.08-.15-.12,.98,.28,1.94,.58,2.86,.87,0,0,3.89,.55,9.47,1.3,0,0,.18,.02,.49,.07,.22,.03,.52,.06,.87,.11,.3,.04,.64,.08,1.02,.14,.16,.03,.33,.04,.51,.06,14.01,1.89,35.14,4.63,36.83,4.19,2.56-.67,4.33-3.41,3.03-5.36-1.28-1.94-31.11-16.65-35.92-18.17-2.71-.86-6.03-2.67-9.16-4.52h-.01c-2.43-1.43-4.77-2.85-6.63-3.87-3.03-1.66-15.83-7.07-23.69-11.28,2.74,1.05,32.98,12.78,36.38,12.13,3-.57,6.17-7.67,3.87-12.96Z"/>
          <path class="cls-18" d="M233.42,92.66c-2.81-.35-7.23-.91-12.38-1.61h-.01c-16.12-2.19-39.37-5.77-42.77-8.56-5.26-4.3-13.82-31.45-16.14-35.45v-.02c-2.31-3.94-7.12-8.52-10.12-9.84-1-.44-3.33-.33-6.21,.02-5.7,.67-13.61,2.29-17.94,2.46-6.52,.26-20.65-1.2-21.57-1.08-.93,.11-5.18,3.81-5.96,6.1-.78,2.29-2.03,8.82-4.18,19.13-2.15,10.3-6.14,18.16-6.11,20.22,.02,.43,.25,.88,.66,1.33h0v.02s.02,.02,.02,.02c.02,.02,.07,.06,.12,.12,1.61,1.65,5.35,3.23,7.99,3.58,3.44,.44,14.38-11.48,15.81-15.91,1.42-4.44,2.09-14.5,2.09-14.5,0,0,6.96,1.63,7.69,1.91,.31,.12,1.46,4.99,3.09,11.25,0,.04,.02,.08,.03,.12,.42,1.59,.87,3.26,1.34,4.96,2.07,7.52,4.62,15.65,7.18,19.83,0,0-8.79,27.89-14.07,32.66,0,0,3.1-.07,7.04-.08h.03c4.78,0,10.76,.05,13.94,.38,4.03,.43,9.03,.07,12.82-.56h.01c1.66-.27,3.1-.6,4.12-.94,3.3-1.1,10.1-9.87,11.41-10.25,1.32-.36,54.76,15.61,54.76,15.61,0,0,4.01-5.86,7.3-13.96v-26.95Z"/>
          <path class="cls-10" d="M90.69,85.36v.02s0,0,0,0h0Z"/>
          <path class="cls-10" d="M136.05,96.75c-2.56-4.18-5.11-12.31-7.18-19.83,4,12.12,12.4,21.99,12.4,21.99,2.59,15.66,10.1,25.57,14.55,30.24-3.79,.63-8.79,.99-12.82,.56-3.18-.34-9.16-.39-13.94-.39h-.03c-3.94,.02-7.04,.09-7.04,.09,5.28-4.77,14.07-32.66,14.07-32.66Z"/>
          <path class="cls-10" d="M128.87,76.92c-.54-1.62-.99-3.28-1.34-4.96,.42,1.59,.87,3.26,1.34,4.96Z"/>
          <path class="cls-10" d="M145.8,37.22c-4.24,9.44-18.59,23.12-18.59,23.12-.69,3.79-.48,7.7,.29,11.49-1.63-6.26-2.78-11.13-3.09-11.25-.73-.28-7.69-1.91-7.69-1.91,0,0-.66,10.06-2.09,14.5-1.42,4.44-12.37,16.36-15.81,15.91-2.64-.35-6.38-1.93-7.99-3.58,.83,.72,4.9,3.91,9.74,.65,5.42-3.66,13.85-27.24,13.02-31.74-.83-4.49-7.31-15.83-7.31-15.83,.92-.11,15.04,1.34,21.57,1.08,4.33-.17,12.24-1.79,17.94-2.46Z"/>
          <polygon class="cls-11" points="116.72 58.68 116.64 50.43 119.16 59.22 116.72 58.68"/>
          <path class="cls-11" d="M116.72,58.68l7.69,1.91s-3,16.32,11.64,36.16c0,0-4.2,14.67-8.36,22.73l-7.82,3.63-19.16,1.81-6.3-.43,8.36-2.37s8.06-.7,10.61-1.24c2.54-.54,7.36-5.16,7.8-7.12,.44-1.95-1.17-8.05-2.32-9.02-1.15-.97-18.04-.72-18.04-.72,0,0-9.56,4.33-12.64,6.94,0,0,6.66-7.34,8.58-8.31,1.92-.97,17.96-1.53,20.18-3.89,2.22-2.36,2.31-8.88,1.44-10.91-.87-2.03-9.95-5.91-9.95-5.91,0,0,5.4-6.54,6.2-8.78,.81-2.24,2.09-14.5,2.09-14.5Z"/>
          <path class="cls-4" d="M90.28,82.74c-.36,1.27,4.67,3.55,6.43,1.68,1.76-1.88,4.67-15.87,2.7-19.86-1.97-3.98-5.14,4.2-9.13,18.18Z"/>
          <path class="cls-15" d="M97.04,83.93s2.18-3.28,3.22-10.21c1.04-6.93-.53-12.05-1.68-12.65-1.15-.6-3.37,6.71-3.37,6.71,0,0,1.98-4.48,3.44-3.92,1.46,.56,2.18,12.61-1.61,20.07Z"/>
          <path class="cls-5" d="M90.68,81.15s3.31,1.8,6.8,1.83c0,0-.33,.95-.98,1.6s-5.07,.83-6.23-1.85l.41-1.58Z"/>
          <path class="cls-5" d="M95.21,67.78s.51,1.42,1.52,1.42c1,0,2.6-4.1,2.6-4.1,0,0-.12-1.33-1.16-1.25-1.04,.08-2.96,3.93-2.96,3.93Z"/>
          <path class="cls-4" d="M118.21,105.32s3,1.22,2.66,7.81c-.02,.29-.36,.51-.92,.66-1.75,.49-5.52,.28-7.74-.79l-.25-.13c-.13-.06-.25-.12-.36-.19-.02-.02-.05-.03-.06-.04-1.6-1.12-1.59-4.11,.38-5.95,1.08-1.02,2.76-1.68,5.1-1.5,.01,0,.03,0,.04,0,.36,.02,.74,.07,1.15,.14Z"/>
          <path class="cls-4" d="M117.18,87.19c.27,.17,.47,.32,.58,.46,.85,1,2.27,5.67-.76,9.06-.08,.09-.17,.17-.27,.24-.46,.32-1.17,.44-2,.44h-.04c-2.7-.05-6.8-1.56-9.06-3.5-.72-.64-1.26-1.32-1.5-2-.99-2.95,.83-5.58,3.13-6.54,.03-.02,.06-.03,.09-.03,.4-.16,.81-.28,1.22-.35,.1-.02,.21-.03,.32-.03,2.54-.17,6.65,1.22,8.28,2.24Z"/>
          <path class="cls-11" d="M107.27,85.36l.8-.2c-1.99,.88-5.05,4.56-2.49,7.7,2.73,3.32,8.22,4.38,9.11,4.53-3.57-.06-9.61-2.67-10.55-5.49-.99-2.95,.83-5.58,3.13-6.54Z"/>
          <path class="cls-11" d="M108.9,84.95l-.83,.21c.18-.09,.35-.15,.51-.18,.1-.02,.21-.03,.32-.03Z"/>
          <path class="cls-11" d="M117.02,105.18c-1.08,.07-5.93,.57-5.57,4.82,.4,4.7,8.22,3.82,8.5,3.79-1.91,.53-6.27,.26-8.35-1.12-2.55-1.68-1.23-8,5.42-7.5Z"/>
          <path class="cls-5" d="M118.21,105.32s3,1.22,2.66,7.81c-.02,.29-.36,.51-.92,.66,0,0,.76-4.96-1.74-8.47Z"/>
          <path class="cls-5" d="M117.18,87.19c.27,.17,.47,.32,.58,.46,.85,1,2.27,5.67-.76,9.06-.08,.09-.17,.17-.27,.24,.46-1.38,1.76-5.93,.44-9.77Z"/>
          <path class="cls-16" d="M108.43,81.96s6.53-6.29,7.63-8.77c1.09-2.48,1.26-13.39,8.36-12.6l-7.69-1.91s-.92,10.97-2.09,14.5c-1.17,3.53-6.2,8.78-6.2,8.78Z"/>
          <path class="cls-16" d="M118.21,87.59s1.14,.62,1.86,8.46c.72,7.84,2.28,16.2,1.83,18.25-.45,2.05-7.67,6.28-7.67,6.28,0,0,6.95-5.06,6.94-6.82,0-1.76-1.17-7.72-2.32-9.02-1.15-1.3-13.07-.75-13.07-.75,0,0,6.79-1.78,9.93-4.5,3.14-2.72,4.18-9.48,2.5-11.91Z"/>
          <path class="cls-16" d="M98.83,89.09s4.19-.13,11.31-6.37l1.04-3.98s-5.08,7.08-12.34,10.35Z"/>
          <path class="cls-13" d="M220.97,91.05c-2.15,.13-47.85,2.44-51.78-5.84-3.95-8.36-7.06-37.27-7.07-38.16,2.31,4,10.87,31.14,16.14,35.45,3.4,2.79,26.6,6.35,42.71,8.55Z"/>
          <path class="cls-13" d="M233.42,92.66c-2.81-.35-7.23-.91-12.38-1.61h-.01c-16.12-2.19-39.37-5.77-42.77-8.56-5.26-4.3-13.82-31.45-16.14-35.45,0,0,5.91,42.79,3.87,58.13-2.04,15.34-6.04,23.02-6.04,23.02,3.3-1.1,10.1-9.87,11.41-10.25,1.32-.36,54.76,15.61,54.76,15.61,0,0,4.01-5.86,7.3-13.96v-26.95Z"/>
          <path class="cls-11" d="M162.12,47.05c2.31,4,10.87,31.14,16.14,35.45l-9.07,2.71c-3.95-8.36-7.06-37.27-7.07-38.16Z"/>
          <path class="cls-14" d="M154.34,108.02c4.8,2.06,10.45-33.75,3.73-51.21-4.68-12.16-9.95-13.98-12.66-14.11-2.71-.13-14.74,11.54-16.08,22.33-1.34,10.79,11.29,37.1,25.01,42.99Z"/>
          <path class="cls-17" d="M146.08,102.83s-16.85-10-21.67-42.24c0,0-2.27,30.93,21.67,42.24Z"/>
          <path class="cls-6" d="M78.63,103.03s1.25-10.3-.53-14.86c0,0-3.84,7.08,.53,14.86Z"/>
          <path class="cls-6" d="M90.78,123.55s1.39-7.93-2.6-12.58c0,0-3.31,7.57,2.6,12.58Z"/>
          <path class="cls-6" d="M4.4,64.66s3.6-7.71,2.63-13.21c0,0-4.61,6.83-2.63,13.21Z"/>
          <path class="cls-6" d="M25.23,16.85s5.63-8.78,10.84-12.4c0,0-5.47-.23-8.37,2.89-2.89,3.13-2.48,9.51-2.48,9.51Z"/>
          <path class="cls-9" d="M104.45,119.23s2.16-3.69,2.31-8.87c.15-5.18-5.3-6.01-5.3-6.01,0,0,5.32,3.84,2.99,14.88Z"/>
          <path class="cls-9" d="M95.48,100.06s3.95-6.74,4.7-11.24c0,0-1.21,.23-2.33,.02,0,0,.2,2.61-2.37,11.22Z"/>
          <path class="cls-2" d="M106.35,120.34l10.6-2.76s-3.16,2.67-4.02,2.66c-.86-.01-6.58,.1-6.58,.1Z"/>
          <path class="cls-3" d="M161.07,60.13s.44-9.5-.81-11.7c-1.25-2.2-5.79-9.72-8.86-10.59-3.07-.87-20.33,2.05-20.33,2.05,0,0,15.45-1.43,19.58,.84,4.13,2.27,9.47,10.54,10.42,19.4Z"/>
          <path class="cls-3" d="M231.14,120.8s-4.88,8.71-7.25,10.06c-2.37,1.35-49.61-14.13-49.61-14.13,0,0,44.33,11.82,48.64,10.14,4.31-1.68,8.21-6.07,8.21-6.07Z"/>
          <path class="cls-3" d="M128.08,127.32s20.13,2.34,26.99,1.03c6.85-1.31,13.18-9.81,13.18-9.81,0,0-5.98,5.88-15.4,7.52-9.42,1.64-24.77,1.27-24.77,1.27Z"/>
          <path class="cls-3" d="M6.08,65.72s3.68,2.92,12.36,4.82c8.68,1.91,35,5.81,35,5.81,0,0-44.79-9.87-47.36-10.63Z"/>
          <path class="cls-3" d="M38.87,5.17s22.63,8.48,32.68,17.42c0,0-8.27-8.94-18.17-13.64-9.9-4.7-14.51-3.78-14.51-3.78Z"/>
          <path class="cls-3" d="M233.42,94.21c-13.59-1.17-51.18-7.99-51.18-7.99,20.04,7.2,44.95,8.01,51.18,8.1v-.1Z"/>
          <path class="cls-3" d="M97.14,60.39s3.17-6.85,3.62-10.64c.45-3.79-.43-5.06-.43-5.06l-3.19,15.7Z"/>
          <path class="cls-4" d="M106.29,38.59s.03,3.57-1.57,5.82c-1.61,2.25-4.39,.28-4.39,.28,0,0,1.72-3.11,5.96-6.1Z"/>
          <path class="cls-11" d="M98.83,89.09l-1.7-1.35s-5.59-1.12-7.09-3.7c0,0,.3,3.47,8.79,5.05Z"/>
        </g>
      </g>
    </g>
  </g>
</svg>